<?xml version="1.0" encoding="iso-8859-1"?>
<!-- Uploaded to: SVG Repo, www.svgrepo.com, Generator: SVG Repo Mixer Tools -->
<svg fill="#000000" height="800px" width="800px" version="1.1" id="Layer_1" xmlns="http://www.w3.org/2000/svg" xmlns:xlink="http://www.w3.org/1999/xlink" 
	 viewBox="0 0 512 512" xml:space="preserve">
<g transform="translate(1 1)">
	<g>
		<g>
			<path d="M434.2,374.467c-5.12,0-8.533,3.413-8.533,8.533v85.333c0,5.12,3.413,8.533,8.533,8.533s8.533-3.413,8.533-8.533V383
				C442.733,377.88,439.32,374.467,434.2,374.467z"/>
			<path d="M152.6,229.4c5.12,0,8.533-3.413,8.533-8.533V109.933c0-5.12-3.413-8.533-8.533-8.533c-5.12,0-8.533,3.413-8.533,8.533
				v110.933C144.067,225.987,147.48,229.4,152.6,229.4z"/>
			<path d="M357.4,229.4c5.12,0,8.533-3.413,8.533-8.533V109.933c0-5.12-3.413-8.533-8.533-8.533s-8.533,3.413-8.533,8.533v110.933
				C348.867,225.987,352.28,229.4,357.4,229.4z"/>
			<path d="M92.867,391.533H58.733c-5.12,0-8.533,3.413-8.533,8.533v51.2c0,5.12,3.413,8.533,8.533,8.533h34.133
				c5.12,0,8.533-3.413,8.533-8.533v-51.2C101.4,394.947,97.987,391.533,92.867,391.533z M84.333,442.733H67.267V408.6h17.067
				V442.733z"/>
			<path d="M161.133,391.533H127c-5.12,0-8.533,3.413-8.533,8.533v51.2c0,5.12,3.413,8.533,8.533,8.533h34.133
				c5.12,0,8.533-3.413,8.533-8.533v-51.2C169.667,394.947,166.253,391.533,161.133,391.533z M152.6,442.733h-17.067V408.6H152.6
				V442.733z"/>
			<path d="M357.4,417.133c-5.12,0-8.533,3.413-8.533,8.533s3.413,8.533,8.533,8.533s8.533-3.413,8.533-8.533
				S362.52,417.133,357.4,417.133z"/>
			<path d="M357.4,459.8c-5.12,0-8.533,3.413-8.533,8.533s3.413,8.533,8.533,8.533s8.533-3.413,8.533-8.533
				S362.52,459.8,357.4,459.8z"/>
			<path d="M357.4,374.467c-5.12,0-8.533,3.413-8.533,8.533s3.413,8.533,8.533,8.533s8.533-3.413,8.533-8.533
				S362.52,374.467,357.4,374.467z"/>
			<path d="M220.867,229.4c5.12,0,8.533-3.413,8.533-8.533s-3.413-8.533-8.533-8.533s-8.533,3.413-8.533,8.533
				S215.747,229.4,220.867,229.4z"/>
			<path d="M67.267,67.267c5.12,0,8.533-3.413,8.533-8.533S72.387,50.2,67.267,50.2s-8.533,3.413-8.533,8.533
				S62.147,67.267,67.267,67.267z"/>
			<path d="M16.067,186.733c5.12,0,8.533-3.413,8.533-8.533s-3.413-8.533-8.533-8.533s-8.533,3.413-8.533,8.533
				S10.947,186.733,16.067,186.733z"/>
			<path d="M255,212.333c-5.12,0-8.533,3.413-8.533,8.533S249.88,229.4,255,229.4s8.533-3.413,8.533-8.533
				S260.12,212.333,255,212.333z"/>
			<path d="M289.133,212.333c-5.12,0-8.533,3.413-8.533,8.533s3.413,8.533,8.533,8.533s8.533-3.413,8.533-8.533
				S294.253,212.333,289.133,212.333z"/>
			<path d="M255,186.733c23.893,0,42.667-18.773,42.667-42.667c0-23.893-18.773-42.667-42.667-42.667
				c-23.893,0-42.667,18.773-42.667,42.667C212.333,167.96,231.107,186.733,255,186.733z M255,118.467
				c14.507,0,25.6,11.093,25.6,25.6c0,14.507-11.093,25.6-25.6,25.6c-14.507,0-25.6-11.093-25.6-25.6
				C229.4,129.56,240.493,118.467,255,118.467z"/>
			<path d="M502.467,493.933h-8.533v-195.8c0.067-0.762,0.015-1.51-0.148-2.236c-0.433-2.547-1.818-4.522-3.872-5.664
				l-30.156-30.156c-0.882-53.009-22.026-103.435-59.69-140.802V84.333c0-2.56-0.853-5.12-3.413-6.827l-68.267-51.2
				c-2.56-1.707-5.973-2.56-8.533-0.853c-3.413,1.707-5.12,4.267-5.12,7.68v32.258c-19.568-4.268-42.622-6.658-59.733-6.658
				c-17.111,0-40.165,2.39-59.733,6.658V33.133c0-3.413-1.707-5.973-5.12-7.68c-2.56-1.707-5.973-0.853-8.533,0.853l-68.267,51.2
				c-2.56,1.707-3.413,4.267-3.413,6.827v34.942c-37.664,37.367-58.808,87.793-59.69,140.802l-30.156,30.156
				c-2.509,1.395-4.02,4.034-4.02,7.434v196.267H7.533c-5.12,0-8.533,3.413-8.533,8.533S2.413,511,7.533,511H24.6h170.667h119.467
				H485.4h17.067c5.12,0,8.533-3.413,8.533-8.533S507.587,493.933,502.467,493.933z M442.733,255h-42.667V144.067
				C426.52,175.64,441.027,214.04,442.733,255z M331.8,50.2L383,88.6v34.133V255h-51.2V76.653V50.2z M255,75.8
				c16.213,0,40.96,2.56,59.733,6.827V255H195.267V82.627C214.04,78.36,238.787,75.8,255,75.8z M127,88.6l51.2-38.4v26.453V255H127
				V122.733V88.6z M109.933,144.067V255H67.267C68.973,214.04,84.333,175.64,109.933,144.067z M62.147,272.067h56.32h68.267h136.533
				h68.267h56.32l17.067,17.067H45.08L62.147,272.067z M203.8,493.933V374.467h42.667v119.467H203.8z M263.533,493.933V374.467
				H306.2v119.467H263.533z M323.267,493.933v-128c0-5.12-3.413-8.533-8.533-8.533H195.267c-5.12,0-8.533,3.413-8.533,8.533v128
				h-153.6V306.2h34.133v17.067c0,5.12,3.413,8.533,8.533,8.533s8.533-3.413,8.533-8.533V306.2h34.133v17.067
				c0,5.12,3.413,8.533,8.533,8.533s8.533-3.413,8.533-8.533V306.2h34.133v17.067c0,5.12,3.413,8.533,8.533,8.533
				s8.533-3.413,8.533-8.533V306.2h34.133v17.067c0,5.12,3.413,8.533,8.533,8.533s8.533-3.413,8.533-8.533V306.2h34.133v17.067
				c0,5.12,3.413,8.533,8.533,8.533s8.533-3.413,8.533-8.533V306.2h34.133v17.067c0,5.12,3.413,8.533,8.533,8.533
				c5.12,0,8.533-3.413,8.533-8.533V306.2h34.133v17.067c0,5.12,3.413,8.533,8.533,8.533s8.533-3.413,8.533-8.533V306.2h34.133
				v17.067c0,5.12,3.413,8.533,8.533,8.533s8.533-3.413,8.533-8.533V306.2h34.133v187.733H323.267z"/>
			<path d="M417.133,58.733h13.653l20.48,20.48v13.653c0,5.12,3.413,8.533,8.533,8.533c5.12,0,8.533-3.413,8.533-8.533V79.213
				l20.48-20.48h13.653c5.12,0,8.533-3.413,8.533-8.533s-3.413-8.533-8.533-8.533h-13.653l-20.48-20.48V7.533
				c0-5.12-3.413-8.533-8.533-8.533c-5.12,0-8.533,3.413-8.533,8.533v13.653l-20.48,20.48h-13.653c-5.12,0-8.533,3.413-8.533,8.533
				S412.013,58.733,417.133,58.733z M459.8,36.547L473.453,50.2L459.8,63.853L446.147,50.2L459.8,36.547z"/>
		</g>
	</g>
</g>
</svg>